<svg width="1200" height="900" viewBox="0 0 1200 900" fill="none" xmlns="http://www.w3.org/2000/svg">
<g clip-path="url(#clip0_115_1123)">
<path d="M1200 0H0V900H1200V0Z" fill="white"/>
<path d="M200.313 99.6875V149.687H250.313V99.6875H200.313Z" fill="#D9D9D9"/>
<path d="M300.313 199.688V249.688H350.313V199.688H300.313Z" fill="#D9D9D9"/>
<path d="M250.313 299.687H200.313V349.688H250.313V299.687Z" fill="#D9D9D9"/>
<path d="M450.313 99.6875V149.687H500.313V99.6875H450.313Z" fill="#D9D9D9"/>
<path d="M450.313 349.688H500.313V299.687H450.313V349.688Z" fill="#D9D9D9"/>
<path d="M600.313 199.688V249.688H650.313V199.688H600.313Z" fill="#D9D9D9"/>
<path d="M400.313 449.687V399.688H350.313V449.687H400.313Z" fill="#D9D9D9"/>
<path d="M700.313 399.688V449.687H750.313V399.688H700.313Z" fill="#D9D9D9"/>
<path d="M800.313 199.688V149.687H750.313V199.688H800.313Z" fill="#D9D9D9"/>
<path d="M850.313 349.688V299.687H800.313V349.688H850.313Z" fill="#D9D9D9"/>
<path d="M950.313 99.6875V149.687H1000.31V99.6875H950.313Z" fill="#D9D9D9"/>
<path d="M1000.31 249.688H950.313V299.687H1000.31V249.688Z" fill="#D9D9D9"/>
<path d="M1050.31 399.688V449.687H1100.31V399.688H1050.31Z" fill="#D9D9D9"/>
<path d="M1150.31 299.687V249.688H1100.31V299.687H1150.31Z" fill="#D9D9D9"/>
<path d="M100.313 199.688V249.688H150.313V199.688H100.313Z" fill="#D9D9D9"/>
<path d="M100.313 499.688H150.313V449.687H100.313V499.688Z" fill="#D9D9D9"/>
<path d="M0.312659 0V900M50.3125 0V900M100.313 0V199.688M100.313 199.688H0M100.313 199.688V249.688M100.313 199.688H150.313M100.313 900V499.688M100.313 499.688H0M100.313 499.688H150.313M100.313 499.688V449.687M150.313 0V199.688M150.313 199.688H300.313M150.313 199.688V249.688M150.313 900V499.688M150.313 499.688H1200M150.313 499.688V449.687M200.313 0V99.6875M200.313 99.6875H0M200.313 99.6875V149.687M200.313 99.6875H250.313M200.313 900V349.688M200.313 349.688H0M200.313 349.688V299.687M200.313 349.688H250.313M250.313 0V99.6875M250.313 99.6875V149.687M250.313 99.6875H450.313M250.313 900V349.688M250.313 349.688V299.687M250.313 349.688H450.313M300.313 0V199.688M300.313 199.688V249.688M300.313 199.688H350.313M300.313 900V249.688M300.313 249.688H350.313M300.313 249.688H150.313M350.313 0V199.688M350.313 199.688V249.688M350.313 199.688H600.313M350.313 900V449.687M350.313 449.687H400.313M350.313 449.687V399.688M350.313 449.687H150.313M400.313 0V399.688M400.313 399.688V449.687M400.313 399.688H350.313M400.313 399.688H700.313M400.313 900V449.687M400.313 449.687H700.313M450.313 0V99.6875M450.313 99.6875V149.687M450.313 99.6875H500.313M450.313 900V349.688M450.313 349.688H500.313M450.313 349.688V299.687M500.313 0V99.6875M500.313 99.6875V149.687M500.313 99.6875H950.313M500.313 900V349.688M500.313 349.688V299.687M500.313 349.688H800.313M550.313 0V900M600.313 0V199.688M600.313 199.688V249.688M600.313 199.688H650.313M600.313 900V249.688M600.313 249.688H350.313M600.313 249.688H650.313M650.313 0V199.688M650.313 199.688V249.688M650.313 199.688H750.313M650.313 900V249.688M650.313 249.688H950.313M700.313 0V399.688M700.313 399.688V449.687M700.313 399.688H750.313M700.313 900V449.687M700.313 449.687H750.313M750.313 0V149.687M750.313 149.687H500.313M750.313 149.687H800.313M750.313 149.687V199.688M750.313 900V449.687M750.313 449.687V399.688M750.313 449.687H1050.31M800.313 0V149.687M800.313 149.687V199.688M800.313 149.687H950.313M800.313 900V349.688M800.313 349.688H850.313M800.313 349.688V299.687M850.313 0V299.687M850.313 299.687V349.688M850.313 299.687H800.313M850.313 299.687H950.313M850.313 900V349.688M850.313 349.688H1200M900.313 0V900M950.313 0V99.6875M950.313 99.6875V149.687M950.313 99.6875H1000.31M950.313 900V299.687M950.313 299.687V249.688M950.313 299.687H1000.31M1000.31 0V99.6875M1000.31 99.6875H1200M1000.31 99.6875V149.687M1000.31 900V299.687M1000.31 299.687V249.688M1000.31 299.687H1100.31M1050.31 0V399.688M1050.31 399.688H750.313M1050.31 399.688V449.687M1050.31 399.688H1100.31M1050.31 900V449.687M1050.31 449.687H1100.31M1100.31 0V249.688M1100.31 249.688H1000.31M1100.31 249.688H1150.31M1100.31 249.688V299.687M1100.31 900V449.687M1100.31 449.687H1200M1100.31 449.687V399.688M1150.31 0V249.688M1150.31 249.688H1200M1150.31 249.688V299.687M1150.31 900V299.687M1150.31 299.687H1200M1150.31 299.687H1100.31M1200.31 0V900M0.000158703 -0.3125H1200M0 49.6875H1200M0 149.687H200.313M200.313 149.687H250.313M200.313 149.687V299.687M1200 149.687H1000.31M1000.31 149.687H950.313M1000.31 149.687V249.688M1200 199.688H800.313M800.313 199.688H750.313M800.313 199.688V299.687M0 249.688H100.313M100.313 249.688H150.313M100.313 249.688V449.687M0 299.687H200.313M200.313 299.687H250.313M0 399.688H350.313M350.313 399.688V249.688M1200 399.688H1100.31M1100.31 399.688V299.687M0 449.687H100.313M100.313 449.687H150.313M0 549.687H1200M0 599.687H1200M0 649.687H1200M0 699.688H1200M0 749.688H1200M0 799.688H1200M0 849.687H1200M0 899.687H1200M250.313 149.687V299.687M250.313 149.687H450.313M250.313 299.687H450.313M450.313 149.687H500.313M450.313 149.687V299.687M150.313 249.688V449.687M450.313 299.687H500.313M500.313 149.687V299.687M500.313 299.687H800.313M950.313 249.688V149.687M950.313 249.688H1000.31M750.313 199.688V399.688" stroke="url(#paint0_radial_115_1123)" stroke-width="0.625"/>
</g>
<defs>
<radialGradient id="paint0_radial_115_1123" cx="0" cy="0" r="1" gradientUnits="userSpaceOnUse" gradientTransform="translate(600.156 449.844) rotate(90) scale(450.156 600.156)">
<stop stop-color="#DCDCDC"/>
<stop offset="0.5" stop-color="#C5C5C5"/>
<stop offset="1" stop-color="white"/>
</radialGradient>
<clipPath id="clip0_115_1123">
<rect width="1200" height="900" fill="white"/>
</clipPath>
</defs>
</svg>
