<svg width="805" height="159" viewBox="0 0 805 159" fill="none" xmlns="http://www.w3.org/2000/svg">
<g clip-path="url(#clip0_630_235)">
<mask id="mask0_630_235" style="mask-type:luminance" maskUnits="userSpaceOnUse" x="0" y="0" width="805" height="159">
<path d="M804.977 0.601562H0.976562V158.602H804.977V0.601562Z" fill="white"/>
</mask>
<g mask="url(#mask0_630_235)">
<path d="M42.7801 100.575H33.496C32.5965 100.575 31.8672 99.8458 31.8672 98.9463V69.7909C31.8672 68.8913 32.5965 68.1621 33.496 68.1621H62.6513C63.5508 68.1621 64.2801 68.8913 64.2801 69.7909V86.7303" stroke="#1F921F" stroke-width="6.29841"/>
<path d="M64.4381 113.931V123.866C64.4381 124.766 65.1673 125.495 66.0669 125.495H95.2222C96.1217 125.495 96.851 124.766 96.851 123.866V102.203C96.851 101.304 96.1217 100.574 95.2222 100.574H34.9571" stroke="#85D62E" stroke-width="6.29841"/>
<path d="M64.4438 93.6962C67.2324 93.6962 69.493 91.4356 69.493 88.6469C69.493 85.8583 67.2324 83.5977 64.4438 83.5977C61.6552 83.5977 59.3946 85.8583 59.3946 88.6469C59.3946 91.4356 61.6552 93.6962 64.4438 93.6962Z" fill="#1F921F"/>
<path d="M64.5415 117.24C67.3301 117.24 69.5907 114.979 69.5907 112.19C69.5907 109.402 67.3301 107.141 64.5415 107.141C61.7528 107.141 59.4922 109.402 59.4922 112.19C59.4922 114.979 61.7528 117.24 64.5415 117.24Z" fill="#1F921F"/>
<path d="M84.8091 57.3322H66.078C65.1785 57.3322 64.4493 56.603 64.4493 55.7034V35.3436C64.4493 34.444 65.1785 33.7148 66.078 33.7148H95.3962C96.2958 33.7148 97.025 34.444 97.025 35.3436V88.1216C97.025 89.0211 97.7542 89.7503 98.6538 89.7503H125.041" stroke="#1F921F" stroke-width="6.29841"/>
<path d="M100.113 89.7429H127.966C128.866 89.7429 129.595 89.0137 129.595 88.1141V58.9589C129.595 58.0593 128.866 57.3301 127.966 57.3301H107.932" stroke="#85D62E" stroke-width="6.29841"/>
<path d="M85.1351 62.0554C87.9237 62.0554 90.1844 59.7948 90.1844 57.0062C90.1844 54.2176 87.9237 51.957 85.1351 51.957C82.3465 51.957 80.0859 54.2176 80.0859 57.0062C80.0859 59.7948 82.3465 62.0554 85.1351 62.0554Z" fill="#1F921F"/>
<path d="M108.917 62.0554C111.705 62.0554 113.966 59.7948 113.966 57.0062C113.966 54.2176 111.705 51.957 108.917 51.957C106.128 51.957 103.868 54.2176 103.868 57.0062C103.868 59.7948 106.128 62.0554 108.917 62.0554Z" fill="#1F921F"/>
<path d="M80.718 155.452C122.61 155.452 156.569 121.492 156.569 79.6008C156.569 37.7096 122.61 3.75 80.718 3.75C38.8268 3.75 4.86719 37.7096 4.86719 79.6008C4.86719 121.492 38.8268 155.452 80.718 155.452Z" stroke="#1F921F" stroke-width="6.29841"/>
<path d="M262.708 59.7773C267.125 59.7773 271.066 60.6947 274.532 62.5294C278.066 64.3642 280.818 67.0824 282.788 70.684C284.827 74.2856 285.846 78.6347 285.846 83.7313V116.86H274.328V85.4641C274.328 80.4355 273.071 76.596 270.557 73.9458C268.042 71.2276 264.611 69.8685 260.261 69.8685C255.912 69.8685 252.447 71.2276 249.864 73.9458C247.35 76.596 246.093 80.4355 246.093 85.4641V116.86H234.575V85.4641C234.575 80.4355 233.317 76.596 230.803 73.9458C228.289 71.2276 224.857 69.8685 220.508 69.8685C216.159 69.8685 212.693 71.2276 210.111 73.9458C207.597 76.596 206.339 80.4355 206.339 85.4641V116.86H194.719V60.6947H206.339V67.1164C208.242 64.8059 210.655 63.0051 213.577 61.714C216.499 60.4228 219.625 59.7773 222.954 59.7773C227.439 59.7773 231.449 60.7286 234.982 62.6314C238.516 64.5341 241.234 67.2863 243.137 70.8878C244.836 67.4901 247.486 64.8059 251.088 62.8352C254.689 60.7966 258.563 59.7773 262.708 59.7773Z" fill="#1F921F"/>
<path d="M352.107 87.4008C352.107 89.5074 351.972 91.4101 351.7 93.109H308.786C309.126 97.594 310.791 101.196 313.781 103.914C316.771 106.633 320.441 107.992 324.79 107.992C331.041 107.992 335.459 105.375 338.041 100.142H350.578C348.88 105.307 345.788 109.555 341.303 112.884C336.886 116.146 331.381 117.777 324.79 117.777C319.421 117.777 314.596 116.588 310.315 114.21C306.102 111.763 302.772 108.365 300.326 104.016C297.948 99.5987 296.758 94.5021 296.758 88.7259C296.758 82.9498 297.914 77.8872 300.224 73.5381C302.602 69.121 305.898 65.7233 310.111 63.3449C314.393 60.9665 319.285 59.7773 324.79 59.7773C330.09 59.7773 334.813 60.9325 338.958 63.243C343.103 65.5534 346.331 68.8152 348.642 73.0284C350.952 77.1736 352.107 81.9644 352.107 87.4008ZM339.978 83.7313C339.91 79.4501 338.381 76.0184 335.391 73.4361C332.401 70.8539 328.697 69.5627 324.28 69.5627C320.271 69.5627 316.839 70.8539 313.985 73.4361C311.131 75.9505 309.432 79.3822 308.888 83.7313H339.978Z" fill="#1F921F"/>
<path d="M359.67 88.5223C359.67 82.882 360.826 77.8874 363.136 73.5383C365.515 69.1892 368.708 65.8254 372.718 63.447C376.795 61.0007 381.314 59.7775 386.275 59.7775C389.944 59.7775 393.546 60.5929 397.08 62.2238C400.681 63.7868 403.535 65.8934 405.642 68.5436V41.4297H417.364V116.86H405.642V108.399C403.739 111.118 401.089 113.36 397.691 115.127C394.361 116.894 390.522 117.777 386.173 117.777C381.28 117.777 376.795 116.554 372.718 114.108C368.708 111.593 365.515 108.128 363.136 103.711C360.826 99.2251 359.67 94.1625 359.67 88.5223ZM405.642 88.7261C405.642 84.8527 404.826 81.489 403.195 78.6349C401.632 75.7808 399.56 73.6062 396.978 72.1112C394.395 70.6162 391.609 69.8687 388.619 69.8687C385.629 69.8687 382.843 70.6162 380.261 72.1112C377.678 73.5383 375.572 75.6788 373.941 78.5329C372.378 81.3191 371.597 84.6489 371.597 88.5223C371.597 92.3957 372.378 95.7934 373.941 98.7155C375.572 101.638 377.678 103.88 380.261 105.443C382.911 106.938 385.697 107.686 388.619 107.686C391.609 107.686 394.395 106.938 396.978 105.443C399.56 103.948 401.632 101.774 403.195 98.9193C404.826 95.9973 405.642 92.5995 405.642 88.7261Z" fill="#1F921F"/>
<path d="M456.989 117.777C451.689 117.777 446.898 116.588 442.617 114.21C438.336 111.763 434.972 108.365 432.526 104.016C430.079 99.5987 428.856 94.5021 428.856 88.7259C428.856 83.0177 430.113 77.9551 432.628 73.5381C435.142 69.121 438.574 65.7233 442.923 63.3449C447.272 60.9665 452.131 59.7773 457.499 59.7773C462.867 59.7773 467.726 60.9665 472.075 63.3449C476.424 65.7233 479.856 69.121 482.37 73.5381C484.885 77.9551 486.142 83.0177 486.142 88.7259C486.142 94.4341 484.851 99.4967 482.268 103.914C479.686 108.331 476.153 111.763 471.668 114.21C467.251 116.588 462.358 117.777 456.989 117.777ZM456.989 107.686C459.979 107.686 462.766 106.972 465.348 105.545C467.998 104.118 470.139 101.978 471.77 99.123C473.4 96.2689 474.216 92.8032 474.216 88.7259C474.216 84.6487 473.434 81.2169 471.871 78.4308C470.308 75.5767 468.236 73.4361 465.654 72.0091C463.071 70.582 460.285 69.8685 457.295 69.8685C454.305 69.8685 451.519 70.582 448.937 72.0091C446.422 73.4361 444.418 75.5767 442.923 78.4308C441.428 81.2169 440.68 84.6487 440.68 88.7259C440.68 94.7739 442.209 99.4628 445.267 102.793C448.393 106.055 452.301 107.686 456.989 107.686Z" fill="#1F921F"/>
<path d="M519.34 106.463L535.241 60.6953H547.575L526.169 116.86H512.306L491.003 60.6953H503.438L519.34 106.463Z" fill="#1F921F"/>
<path d="M552.485 88.5221C552.485 82.8818 553.64 77.8872 555.951 73.5381C558.329 69.189 561.523 65.8252 565.532 63.4468C569.61 61.0005 574.095 59.7773 578.987 59.7773C583.404 59.7773 587.244 60.6607 590.506 62.4275C593.835 64.1264 596.486 66.2669 598.456 68.8492V60.6947H610.179V116.86H598.456V108.501C596.486 111.152 593.801 113.36 590.404 115.127C587.006 116.894 583.133 117.777 578.783 117.777C573.959 117.777 569.542 116.554 565.532 114.108C561.523 111.593 558.329 108.128 555.951 103.711C553.64 99.2249 552.485 94.1623 552.485 88.5221ZM598.456 88.7259C598.456 84.8525 597.641 81.4888 596.01 78.6347C594.447 75.7806 592.374 73.606 589.792 72.111C587.21 70.616 584.424 69.8685 581.434 69.8685C578.444 69.8685 575.658 70.616 573.075 72.111C570.493 73.5381 568.386 75.6786 566.756 78.5327C565.193 81.3189 564.411 84.6487 564.411 88.5221C564.411 92.3955 565.193 95.7932 566.756 98.7153C568.386 101.638 570.493 103.88 573.075 105.443C575.726 106.938 578.512 107.686 581.434 107.686C584.424 107.686 587.21 106.938 589.792 105.443C592.374 103.948 594.447 101.774 596.01 98.9191C597.641 95.9971 598.456 92.5993 598.456 88.7259Z" fill="#1F921F"/>
<path d="M653.778 59.7773C658.195 59.7773 662.137 60.6947 665.602 62.5294C669.136 64.3642 671.888 67.0824 673.859 70.684C675.83 74.2856 676.815 78.6347 676.815 83.7313V116.86H665.297V85.4641C665.297 80.4355 664.039 76.596 661.525 73.9458C659.011 71.2276 655.579 69.8685 651.23 69.8685C646.881 69.8685 643.415 71.2276 640.833 73.9458C638.319 76.596 637.061 80.4355 637.061 85.4641V116.86H625.441V60.6947H637.061V67.1164C638.964 64.8059 641.377 63.0051 644.299 61.714C647.289 60.4228 650.449 59.7773 653.778 59.7773Z" fill="#1F921F"/>
<path d="M687.764 88.7259C687.764 82.9498 688.919 77.8872 691.23 73.5381C693.608 69.121 696.87 65.7233 701.015 63.3449C705.16 60.9665 709.917 59.7773 715.285 59.7773C722.081 59.7773 727.687 61.4082 732.104 64.67C736.589 67.8639 739.613 72.4508 741.176 78.4308H728.638C727.619 75.6447 725.988 73.4701 723.746 71.9072C721.503 70.3442 718.683 69.5627 715.285 69.5627C710.529 69.5627 706.723 71.2616 703.869 74.6593C701.083 77.9891 699.69 82.678 699.69 88.7259C699.69 94.7739 701.083 99.4967 703.869 102.895C706.723 106.293 710.529 107.992 715.285 107.992C722.013 107.992 726.464 105.036 728.638 99.123H741.176C739.545 104.832 736.487 109.385 732.002 112.782C727.517 116.112 721.945 117.777 715.285 117.777C709.917 117.777 705.16 116.588 701.015 114.21C696.87 111.763 693.608 108.365 691.23 104.016C688.919 99.5987 687.764 94.5021 687.764 88.7259Z" fill="#1F921F"/>
<path d="M804.232 87.4008C804.232 89.5074 804.096 91.4101 803.824 93.109H760.911C761.251 97.594 762.916 101.196 765.906 103.914C768.896 106.633 772.565 107.992 776.914 107.992C783.166 107.992 787.583 105.375 790.166 100.142H802.703C801.004 105.307 797.912 109.555 793.427 112.884C789.01 116.146 783.506 117.777 776.914 117.777C771.546 117.777 766.721 116.588 762.44 114.21C758.227 111.763 754.897 108.365 752.451 104.016C750.072 99.5987 748.883 94.5021 748.883 88.7259C748.883 82.9498 750.038 77.8872 752.349 73.5381C754.727 69.121 758.023 65.7233 762.236 63.3449C766.517 60.9665 771.41 59.7773 776.914 59.7773C782.215 59.7773 786.938 60.9325 791.083 63.243C795.228 65.5534 798.456 68.8152 800.766 73.0284C803.077 77.1736 804.232 81.9644 804.232 87.4008ZM792.102 83.7313C792.034 79.4501 790.505 76.0184 787.515 73.4361C784.525 70.8539 780.822 69.5627 776.405 69.5627C772.395 69.5627 768.964 70.8539 766.11 73.4361C763.256 75.9505 761.557 79.3822 761.013 83.7313H792.102Z" fill="#1F921F"/>
</g>
</g>
<defs>
<clipPath id="clip0_630_235">
<rect width="804" height="158" fill="white" transform="translate(0.976562 0.601562)"/>
</clipPath>
</defs>
</svg>
